<?xml version="1.0" encoding="UTF-8" standalone="no"?>
<svg
   xmlns:dc="http://purl.org/dc/elements/1.1/"
   xmlns:cc="http://creativecommons.org/ns#"
   xmlns:rdf="http://www.w3.org/1999/02/22-rdf-syntax-ns#"
   xmlns:svg="http://www.w3.org/2000/svg"
   xmlns="http://www.w3.org/2000/svg"
   xmlns:sodipodi="http://sodipodi.sourceforge.net/DTD/sodipodi-0.dtd"
   xmlns:inkscape="http://www.inkscape.org/namespaces/inkscape"
   version="1.1"
   x="0px"
   y="0px"
   viewBox="0 0 100 100"
   enable-background="new 0 0 100 100"
   xml:space="preserve"
   id="svg32"
   sodipodi:docname="noun_Newspaper_186260.svg"
   width="100"
   height="100"
   inkscape:version="1.0 (b51213c273, 2020-08-10)"><metadata
     id="metadata38"><rdf:RDF><cc:Work
         rdf:about=""><dc:format>image/svg+xml</dc:format><dc:type
           rdf:resource="http://purl.org/dc/dcmitype/StillImage" /><dc:title></dc:title></cc:Work></rdf:RDF></metadata><defs
     id="defs36" /><sodipodi:namedview
     pagecolor="#ffffff"
     bordercolor="#666666"
     borderopacity="1"
     objecttolerance="10"
     gridtolerance="10"
     guidetolerance="10"
     inkscape:pageopacity="0"
     inkscape:pageshadow="2"
     inkscape:window-width="1920"
     inkscape:window-height="1052"
     id="namedview34"
     showgrid="false"
     inkscape:zoom="7.24"
     inkscape:cx="50"
     inkscape:cy="62.5"
     inkscape:window-x="0"
     inkscape:window-y="0"
     inkscape:window-maximized="1"
     inkscape:current-layer="svg32" /><g
     id="g4"><path
       fill="#000000"
       d="M 81.1,80.5 H 19.6 c -0.8,0 -1.5,-0.7 -1.5,-1.5 V 21 c 0,-0.8 0.7,-1.5 1.5,-1.5 h 61.6 c 0.8,0 1.5,0.7 1.5,1.5 v 58 c -0.1,0.9 -0.7,1.5 -1.6,1.5 z m -60,-3 h 58.6 v -55 H 21.1 Z"
       id="path2" /></g><g
     id="g8"><path
       fill="#000000"
       d="M 72.6,38.6 H 46.4 c -0.8,0 -1.5,-0.7 -1.5,-1.5 0,-0.8 0.7,-1.5 1.5,-1.5 h 26.1 c 0.8,0 1.5,0.7 1.5,1.5 0,0.8 -0.6,1.5 -1.4,1.5 z"
       id="path6" /></g><g
     id="g12"><path
       fill="#000000"
       d="m 62.4,51.9 h -16 c -0.8,0 -1.5,-0.7 -1.5,-1.5 0,-0.8 0.7,-1.5 1.5,-1.5 h 16 c 0.8,0 1.5,0.7 1.5,1.5 0,0.8 -0.6,1.5 -1.5,1.5 z"
       id="path10" /></g><g
     id="g16"><path
       fill="#000000"
       d="M 72.6,65 H 46.4 c -0.8,0 -1.5,-0.7 -1.5,-1.5 0,-0.8 0.7,-1.5 1.5,-1.5 h 26.1 c 0.8,0 1.5,0.7 1.5,1.5 0,0.8 -0.6,1.5 -1.4,1.5 z"
       id="path14" /></g><g
     id="g22"><rect
       x="27.700001"
       y="37.099998"
       width="9.1999998"
       height="13.3"
       id="rect18" /><path
       fill="#000000"
       d="m 36.8,51.9 h -9.2 c -0.8,0 -1.5,-0.7 -1.5,-1.5 V 37.1 c 0,-0.8 0.7,-1.5 1.5,-1.5 h 9.2 c 0.8,0 1.5,0.7 1.5,1.5 v 13.3 c 0,0.8 -0.6,1.5 -1.5,1.5 z m -7.6,-3 h 6.2 V 38.6 h -6.2 z"
       id="path20" /></g><g
     id="g26"><path
       fill="#000000"
       d="m 36.8,65 h -9.2 c -0.8,0 -1.5,-0.7 -1.5,-1.5 0,-0.8 0.7,-1.5 1.5,-1.5 h 9.2 c 0.8,0 1.5,0.7 1.5,1.5 0,0.8 -0.6,1.5 -1.5,1.5 z"
       id="path24" /></g></svg>
