<svg xmlns="http://www.w3.org/2000/svg" xmlns:xlink="http://www.w3.org/1999/xlink" version="1.1" x="0px" y="0px" viewBox="0 0 16 20" style="enable-background:new 0 0 16 16;" xml:space="preserve"><g><path d="M14,4h-1V3c0-0.552-0.448-1-1-1H2C1.448,2,1,2.448,1,3v8c0,0.552,0.448,1,1,1h1v1c0,0.552,0.448,1,1,1h10   c0.552,0,1-0.448,1-1V5C15,4.448,14.552,4,14,4z M3,5v6H2V3h10v1H4C3.448,4,3,4.448,3,5z M14,13H4V5h10V13z"/><circle cx="6" cy="7" r="1"/><polygon points="10.2,8 8.388,10.588 7.4,9.6 5,12 13,12  "/></g><text x="0" y="31" fill="#000000" font-size="5px" font-weight="bold" font-family="'Helvetica Neue', Helvetica, Arial-Unicode, Arial, Sans-serif">Created by icon 54</text><text x="0" y="36" fill="#000000" font-size="5px" font-weight="bold" font-family="'Helvetica Neue', Helvetica, Arial-Unicode, Arial, Sans-serif">from the Noun Project</text></svg>