<?xml version="1.0" encoding="UTF-8" standalone="no"?>
<svg
   xmlns:dc="http://purl.org/dc/elements/1.1/"
   xmlns:cc="http://creativecommons.org/ns#"
   xmlns:rdf="http://www.w3.org/1999/02/22-rdf-syntax-ns#"
   xmlns:svg="http://www.w3.org/2000/svg"
   xmlns="http://www.w3.org/2000/svg"
   xmlns:sodipodi="http://sodipodi.sourceforge.net/DTD/sodipodi-0.dtd"
   xmlns:inkscape="http://www.inkscape.org/namespaces/inkscape"
   data-name="Layer 1"
   viewBox="0 0 100 100"
   x="0px"
   y="0px"
   version="1.1"
   id="svg12"
   sodipodi:docname="noun_Location_2053975.svg"
   width="100"
   height="100"
   inkscape:version="1.0 (b51213c273, 2020-08-10)">
  <metadata
     id="metadata18">
    <rdf:RDF>
      <cc:Work
         rdf:about="">
        <dc:format>image/svg+xml</dc:format>
        <dc:type
           rdf:resource="http://purl.org/dc/dcmitype/StillImage" />
        <dc:title>A___UP</dc:title>
      </cc:Work>
    </rdf:RDF>
  </metadata>
  <defs
     id="defs16" />
  <sodipodi:namedview
     pagecolor="#ffffff"
     bordercolor="#666666"
     borderopacity="1"
     objecttolerance="10"
     gridtolerance="10"
     guidetolerance="10"
     inkscape:pageopacity="0"
     inkscape:pageshadow="2"
     inkscape:window-width="1920"
     inkscape:window-height="1052"
     id="namedview14"
     showgrid="false"
     inkscape:zoom="7.24"
     inkscape:cx="50"
     inkscape:cy="68.024862"
     inkscape:window-x="0"
     inkscape:window-y="0"
     inkscape:window-maximized="1"
     inkscape:current-layer="svg12" />
  <title
     id="title2">A___UP</title>
  <path
     d="M 50.00049,19.53027 A 16.55845,16.55845 0 1 0 66.55823,36.0885 16.57723,16.57723 0 0 0 50.00049,19.53027 Z m 0,28.83118 a 12.27277,12.27277 0 1 1 12.272,-12.27295 12.28693,12.28693 0 0 1 -12.272,12.27295 z"
     id="path4" />
  <path
     d="m 50.00049,5 a 31.12372,31.12372 0 0 0 -31.089,31.0885 c 0,12.22089 8.62537,28.561 13.76575,37.21423 a 159.0794,159.0794 0 0 0 9.96557,14.88739 C 47.85388,95 49.0946,95 50.00049,95 c 0.90589,0 2.14654,0 7.35766,-6.80988 a 158.90948,158.90948 0 0 0 9.9646,-14.88739 C 72.46405,64.64954 81.0885,48.30939 81.0885,36.0885 A 31.12351,31.12351 0 0 0 50.00049,5 Z m 0,85.30414 C 44.66846,85.30322 23.1972,54.03479 23.1972,36.0885 a 26.8028,26.8028 0 0 1 53.6056,0 c 0,17.94489 -21.47034,49.21472 -26.80231,54.21564 z"
     id="path6" />
</svg>
